<svg viewBox="0 0 11.6094 11.6094" fill="none" xmlns="http://www.w3.org/2000/svg" xmlns:xlink="http://www.w3.org/1999/xlink" x="0" y="0"><path id="Vector_80" d="M8.083,5.2794l1.05,4.78c0.059,0.29 -0.058,0.52 -0.291,0.7l-0.292,0.12c-0.292,0.11 -0.583,0.05 -0.758,-0.18l-2.042,-3.09l-1.75,1.17v1.75l-0.583,0.58l-1.167,-1.75l-1.75,-1.17l0.583,-0.58h1.75l1.167,-1.75l-3.092,-2.04c-0.233,-0.18 -0.291,-0.47 -0.175,-0.76l0.175,-0.29c0.117,-0.24 0.35,-0.35 0.642,-0.29l4.783,1.05l2.042,-2.05c0.875,-0.87 2.042,-1.16 2.625,-0.87c0.292,0.58 0,1.75 -0.875,2.63z" stroke="#111827" stroke-linecap="round"/></svg>