<svg viewBox="0 0 19.5 19.5" fill="none" xmlns="http://www.w3.org/2000/svg" xmlns:xlink="http://www.w3.org/1999/xlink" x="0" y="0"><path id="Vector_90" d="M9.7502,-0.0005c-1.929,0 -3.814,0.57 -5.417,1.64c-1.603,1.07 -2.853,2.6 -3.591,4.38c-0.738,1.78 -0.931,3.74 -0.555,5.63c0.376,1.89 1.305,3.63 2.669,4.99c1.363,1.37 3.1,2.3 4.992,2.67c1.891,0.38 3.851,0.19 5.633,-0.55c1.782,-0.74 3.304,-1.99 4.376,-3.59c1.071,-1.61 1.643,-3.49 1.643,-5.42c-0.003,-2.58 -1.031,-5.06 -2.859,-6.89c-1.828,-1.83 -4.306,-2.86 -6.891,-2.86zM10.5002,17.9695v-5.97h2.25c0.199,0 0.39,-0.08 0.53,-0.22c0.141,-0.14 0.22,-0.33 0.22,-0.53c0,-0.2 -0.079,-0.39 -0.22,-0.53c-0.14,-0.14 -0.331,-0.22 -0.53,-0.22h-2.25v-2.25c0,-0.4 0.158,-0.78 0.439,-1.06c0.281,-0.28 0.663,-0.44 1.061,-0.44h1.5c0.199,0 0.39,-0.08 0.53,-0.22c0.141,-0.14 0.22,-0.33 0.22,-0.53c0,-0.2 -0.079,-0.39 -0.22,-0.53c-0.14,-0.14 -0.331,-0.22 -0.53,-0.22h-1.5c-0.796,0 -1.559,0.32 -2.121,0.88c-0.563,0.56 -0.879,1.32 -0.879,2.12v2.25h-2.25c-0.199,0 -0.39,0.08 -0.53,0.22c-0.141,0.14 -0.22,0.33 -0.22,0.53c0,0.2 0.079,0.39 0.22,0.53c0.14,0.14 0.331,0.22 0.53,0.22h2.25v5.97c-2.114,-0.2 -4.073,-1.2 -5.468,-2.8c-1.395,-1.6 -2.12,-3.67 -2.024,-5.8c0.097,-2.12 1.007,-4.12 2.542,-5.58c1.535,-1.47 3.577,-2.29 5.7,-2.29c2.123,0 4.164,0.82 5.699,2.29c1.535,1.46 2.446,3.46 2.542,5.58c0.097,2.13 -0.628,4.2 -2.023,5.8c-1.395,1.6 -3.354,2.6 -5.468,2.8z" fill="currentColor"/></svg>