<svg viewBox="0 0 19.5 19.5" fill="none" xmlns="http://www.w3.org/2000/svg" xmlns:xlink="http://www.w3.org/1999/xlink" x="0" y="0"><path id="Vector_89" d="M9.75,5.2495c-0.89,0 -1.76,0.26 -2.5,0.76c-0.74,0.49 -1.317,1.2 -1.657,2.02c-0.341,0.82 -0.43,1.73 -0.257,2.6c0.174,0.87 0.603,1.67 1.232,2.3c0.629,0.63 1.431,1.06 2.304,1.23c0.873,0.18 1.778,0.09 2.6,-0.25c0.822,-0.34 1.525,-0.92 2.02,-1.66c0.494,-0.74 0.758,-1.61 0.758,-2.5c-0.001,-1.19 -0.476,-2.34 -1.319,-3.18c-0.844,-0.84 -1.988,-1.32 -3.181,-1.32zM9.75,12.7495c-0.593,0 -1.173,-0.18 -1.667,-0.51c-0.493,-0.32 -0.878,-0.79 -1.105,-1.34c-0.227,-0.55 -0.286,-1.15 -0.17,-1.73c0.115,-0.59 0.401,-1.12 0.821,-1.54c0.419,-0.42 0.954,-0.71 1.536,-0.82c0.582,-0.12 1.185,-0.06 1.733,0.17c0.548,0.23 1.017,0.61 1.346,1.1c0.33,0.5 0.506,1.08 0.506,1.67c0,0.8 -0.316,1.56 -0.879,2.12c-0.562,0.56 -1.325,0.88 -2.121,0.88zM14.25,-0.0005h-9c-1.392,0 -2.726,0.56 -3.711,1.54c-0.984,0.98 -1.538,2.32 -1.539,3.71v9c0.001,1.39 0.555,2.73 1.539,3.71c0.985,0.99 2.319,1.54 3.711,1.54h9c1.392,0 2.726,-0.55 3.711,-1.54c0.984,-0.98 1.538,-2.32 1.539,-3.71v-9c-0.001,-1.39 -0.555,-2.73 -1.539,-3.71c-0.985,-0.98 -2.319,-1.54 -3.711,-1.54zM18,14.2495c0,1 -0.395,1.95 -1.098,2.65c-0.704,0.71 -1.657,1.1 -2.652,1.1h-9c-0.995,0 -1.948,-0.39 -2.652,-1.1c-0.703,-0.7 -1.098,-1.65 -1.098,-2.65v-9c0,-0.99 0.395,-1.95 1.098,-2.65c0.704,-0.7 1.657,-1.1 2.652,-1.1h9c0.995,0 1.948,0.4 2.652,1.1c0.703,0.7 1.098,1.66 1.098,2.65zM15.75,4.8795c0,0.22 -0.066,0.44 -0.19,0.62c-0.123,0.19 -0.299,0.33 -0.504,0.41c-0.206,0.09 -0.432,0.11 -0.65,0.07c-0.219,-0.04 -0.419,-0.15 -0.576,-0.31c-0.158,-0.16 -0.265,-0.36 -0.308,-0.58c-0.044,-0.21 -0.022,-0.44 0.064,-0.65c0.085,-0.2 0.229,-0.38 0.414,-0.5c0.185,-0.12 0.402,-0.19 0.625,-0.19c0.298,0 0.585,0.12 0.795,0.33c0.211,0.21 0.33,0.5 0.33,0.8z" fill="currentColor"/></svg>