<svg viewBox="0 0 188.5433 120.1433" fill="none" xmlns="http://www.w3.org/2000/svg" xmlns:xlink="http://www.w3.org/1999/xlink" x="0" y="0"><g id="Vector_88">
<path d="M81.7167,10.426c-0.616,-0.44 -1.333,-0.71 -2.085,-0.73c-4.563,-0.14 -10.455,0.95 -16.448,-2.45c-6.577,-3.71 -7.755,-4.22 -10.606,-4.55c-1.258,-0.17 -9.212,-0.23 -10.024,-0.09c-0.267,0.04 1.738,2.4 6.091,7.18c1.786,1.97 3.281,3.69 3.307,3.83c0.069,0.37 -0.449,0.53 -2.237,0.69c-2.795,0.27 -3.719,-0.04 -6.088,-2.03c-1.471,-1.22 -1.893,-1.31 -5.641,-1.2l-2.843,0.09l10.4,12.36c5.489,-2.48 10.241,-5.78 30.766,-6.84c6.051,-0.31 9.231,-0.53 9.231,-0.53c0,0 -0.143,-1.92 -0.566,-3.4c0.044,0 -2.006,-1.45 -3.257,-2.33z" fill="#FDDB32"/>
<path d="M42.0287,52.586l12.461,-29.51l9.676,-1.88l-13.33,30.96c-2.732,0.11 -5.477,0.66 -8.196,0.79c-0.345,0.02 -0.754,0.16 -0.611,-0.36z" fill="#FDDB32"/>
<path d="M38.5457,20.656l3.965,5.33c-4.399,3.3 -8.254,7.43 -11.319,11.67c-8.156,11.29 -14.238,28.22 -10.446,42.13c1.73,6.35 6.127,12.74 12.768,14.37l15.735,-31.53c0.728,-0.73 -0.274,-0.46 -1.614,-0.36c-3.18,0.22 -6.419,0.75 -9.607,1l2.544,-6.74l21.158,-2.06c-0.975,5.37 -2.38,10.67 -3.44,16.02c-0.078,0.38 -0.215,0.67 0.318,0.57l13.152,-17.79l9.178,-0.81l-0.241,1.14c-9.886,18.55 -12.28,47.86 -38.057,50.13c-1.704,0.15 -3.408,-0.06 -5.106,0.13c-2.517,3.28 -4.709,6.89 -7.857,9.68c-5.549,4.91 -13.79,7.68 -20.906,4.71c-9.678,-4.04 -10.179,-16.93 -4.169,-24.44c0.911,-1.14 4.462,-4.42 5.659,-4.87l4.085,6.12c0,0 -0.547,0.43 -1.002,0.77c-3.701,2.78 -5.587,7.44 -3.265,11.8c2.049,3.85 6.556,4 10.231,2.5c3.675,-1.5 6.166,-4.81 8.482,-7.79c0.091,-0.49 -0.072,-0.31 -0.312,-0.42c-1.217,-0.61 -2.53,-1.04 -3.753,-1.76c-7.819,-4.58 -12.755,-13.54 -13.861,-22.48c-2.53,-20.41 9.828,-44.16 27.68,-57.02zM53.3657,87.636h-4.117l2.244,-13.45l-9.725,20.62c-0.175,0.61 0.983,0.39 1.36,0.37c6.927,-0.44 13.666,-5.63 16.976,-11.55c1.88,-3.37 3.513,-7.45 4.859,-11.06c-4.143,4.75 -7.59,10.17 -11.597,15.07z" fill="#FDDB32"/>
<path d="M89.0587,15.476c-0.292,0.03 -0.559,-0.16 -0.621,-0.45l-1.172,-5.49c-0.073,-0.34 0.165,-0.66 0.508,-0.7l72.505,-7.16h-0.013c0.273,0.27 -2.517,6.19 -2.92,7.04z" fill="#FDDB32"/>
<path d="M172.0677,0.676c-3.285,9.06 -7.65,17.76 -10.915,26.82c-1.106,3.07 -3.623,8.8 2.426,6.47c3.63,-1.4 6.394,-4.21 9.146,-6.87c0.325,-0.06 7.144,1.63 7.209,1.93c-1.08,1.49 -5.196,6.11 -5.196,6.11c0,0 -5.142,6.44 -6.28,10.03c-0.475,1.51 -0.716,3.88 -1.197,5.08c-0.098,0.24 -0.189,0.44 -0.436,0.57l-84.824,8.16c1.814,-4.12 2.517,-5.64 2.907,-7l76.928,-7.45c0.312,-0.15 2.693,-4.71 2.491,-4.9c-3.434,1.28 -8.462,3.89 -11.708,0.87c-0.527,-0.49 -1.04,-1.86 -1.144,-1.88c-0.56,-0.1 -1.919,1.31 -2.531,1.72c-7.584,5.08 -18.733,5.45 -17.789,-6.61c0.045,-0.55 1.183,-5.15 0.865,-5.17c-2.726,0.07 -2.231,0.92 -3.233,2.78c-2.79,5.2 -6.329,10.43 -11.045,14.01l-7.05,0.81l0.37,-5.78c-2.81,3.54 -7.974,8.78 -12.904,6.46c-1.275,-0.6 -1.392,-1.39 -1.913,-2.6c-0.065,-0.15 0.02,-0.55 -0.396,-0.34c-0.274,0.14 -1.601,2.09 -2.069,2.51c-2.081,1.87 -5.88,3.37 -8.293,1.39c-0.735,-0.61 -1.158,-1.82 -1.255,-1.88c-0.43,-0.31 -2.557,1.59 -3.155,1.95c-2.771,1.66 -8.17,3.5 -10.55,0.42c-2.713,-3.51 0.657,-9.76 2.543,-13.02c0.475,-0.82 1.997,-2.64 2.192,-3.32c0.156,-0.52 -0.293,-0.37 -0.624,-0.38c-0.456,-0.01 -2.843,0.21 -3.188,0.31c-0.533,0.16 -0.975,1.27 -1.216,1.8c-2.602,5.7 -4.729,11.67 -7.753,17.19c-2.153,0.49 -4.462,0.39 -6.674,0.56c3.825,-6.59 7.617,-13.19 10.876,-20.1c0.156,-0.64 -0.586,-1.08 -0.833,-1.7c-1.607,-3.99 2.082,-10.1 6.55,-9.62c2.797,0.31 1.717,3.99 1.119,5.79c2.745,-0.32 5.32,-1.47 7.61,-2.96l3.59,3.88c-1.736,2.84 -7.278,11.61 -6.667,14.73c0.508,2.59 4.345,0.23 5.302,-1.1c0.956,-1.33 1.704,-5.48 2.523,-7.51c2.017,-4.97 7.545,-13.48 13.855,-11.96c1.203,0.29 1.561,1.18 2.172,2.08c0.111,0.16 0.163,0.72 0.553,0.32c0.143,-0.14 0.312,-2.38 0.995,-2.64l7.24,-0.87l-6.869,17.83c-0.28,1.12 -0.247,2.62 1.236,2.51c2.589,-0.18 5.581,-5.43 6.771,-7.52l1.847,-12.96l6.999,-0.87l-3.122,19.35c1.249,-0.99 2.244,-2.54 3.122,-3.88c0.65,-0.99 3.851,-6.25 3.695,-6.98c-0.098,-0.46 -0.814,-1.02 -0.937,-1.84c-0.475,-3.08 0.937,-6.92 3.499,-8.76c1.366,-0.98 3.441,-1.74 4.722,-0.27c1.523,1.73 0.417,4.86 0.371,6.92c3.37,-0.15 4.911,-3.2 7.24,-5.03c5.054,-3.96 12.774,-4.5 11.818,4.11c-0.618,5.57 -5.346,10.4 -9.782,13.27c-0.768,0.5 -2.199,0.67 -0.423,1.59c3.577,1.85 9.405,-2.79 11.181,-5.83c3.746,-10.17 8.222,-20.09 12.046,-30.21zM138.6347,32.586c0.637,0.57 3.746,-3.06 4.195,-3.69c0.846,-1.17 5.217,-9.64 0.917,-6.61c-2.771,1.95 -4.715,7 -5.112,10.3zM97.4027,27.366c-2.686,0.58 -5.756,8.08 -5.925,10.62c-0.313,4.72 2.621,2.75 4.351,0.37c0.937,-1.28 1.808,-3.18 2.329,-4.69c0.468,-1.37 2.315,-6.97 -0.755,-6.3z" fill="#FDDB32"/>
<path d="M185.7177,54.466l-9.236,26.01c0.162,0.33 0.689,0.04 0.93,-0.07c1.906,-0.88 4.319,-3.26 5.314,-5.08l5.146,3.14c0,0 -4.352,3.32 -4.925,3.75c-1.086,0.81 -2.608,1.82 -3.798,2.46c-1.061,0.55 -4.417,1.63 -5.028,2.22c-0.488,0.47 -2.218,5.05 -2.836,6.19c-2.257,4.19 -5.718,8.78 -10.524,10.01c-5.64,1.44 -10.225,-0.48 -9.477,-7.04c0.54,-4.75 6.745,-8.66 10.732,-10.3c1.268,-0.53 5.561,-1.54 6.218,-2.03c0.319,-0.23 0.469,-0.76 0.631,-1.13c2.387,-5.2 -0.481,-1.44 -2.283,-0.28c-1.802,1.15 -5.008,2.33 -6.569,0.17c-0.345,-0.49 -0.397,-1.46 -0.872,-1.39c-0.306,0.04 -2.088,1.92 -2.686,2.32c-2.264,1.5 -7.084,2.86 -8.437,-0.42c-1.808,-4.39 2.888,-11.92 3.897,-16.46c0.201,-0.92 0.227,-1.42 -0.879,-0.89c-2.022,0.97 -6.582,12.14 -7.61,14.71c-0.663,1.65 -1.171,3.36 -1.808,5.02l-7.057,0.75c1.411,-5.29 4.006,-10.4 5.554,-15.64c0.228,-0.77 0.599,-1.82 0.683,-2.58c0.293,-2.59 -1.775,0.13 -2.348,0.89c-2.296,3.04 -4.345,8.08 -5.925,11.63c-0.423,0.94 -2.413,6.26 -2.862,6.41l-6.823,0.54l-0.124,-1c-1.119,0.88 -2.563,1.64 -3.987,1.77c-9.939,0.9 -2.029,-13.15 -0.898,-17.5c0.26,-1.01 0.683,-3.27 -0.988,-1.75c-0.944,0.85 -2.218,3.22 -2.869,4.41c-2.654,4.85 -4.377,10.4 -6.4,15.54l-6.947,0.54c1.717,-5.38 4.247,-10.73 5.802,-16.14c0.202,-0.7 0.566,-1.67 0.663,-2.34c0.15,-0.96 -0.539,-0.74 -1.118,-0.37c-1.197,0.76 -3.506,4.88 -4.235,6.29c-2.179,4.23 -3.714,8.84 -5.6,13.21l-6.992,0.87l5.984,-16.58l-4.176,2.07c-1.08,5.41 -6.186,15.21 -12.183,16c-10.511,1.39 -7.922,-11.35 -5.268,-17.37c1.378,-3.13 5.314,-9.24 8.846,-9.96c1.151,-0.24 1.079,0.65 1.502,1.4c0.52,0.9 0.995,-0.48 1.392,-0.86c5.444,-5.07 5.6,0.8 6.407,4.81c0.058,0.31 -0.182,0.46 0.371,0.38c1.079,-0.15 3.993,-2.6 4.741,-3.52c1.041,-1.28 1.464,-2.81 2.42,-4.1l6.427,-1.18c0.26,0.25 -2.479,5.82 -2.719,6.69c-0.13,0.47 0.11,0.37 0.468,0.35c1.476,-2.57 5.828,-8.2 9.087,-7.78c2.322,0.29 2.036,3.08 2.14,4.65c0.026,0.37 -0.196,0.73 0.37,0.62c1.483,-1.89 4.267,-5.61 6.752,-6.01c5.717,-0.92 4.208,5.86 3.22,9.27c-0.82,2.83 -3.142,6.96 -3.545,9.49c-0.813,5.08 4.956,-0.84 5.398,-2.61l6.076,-16.87l6.673,-1.06c-0.345,1.37 -2.576,5.29 -2.498,6.4c0.02,0.24 0.293,0.12 0.501,0.13c1.295,-2.49 7.097,-9.43 10.16,-6.71c1.151,1.02 0.729,2.74 0.826,4.07c0.026,0.38 -0.195,0.73 0.371,0.62c1.691,-3.35 9.887,-10.49 11.044,-3.08c0.82,5.25 -3.876,11.2 -4.618,15.84c-0.357,2.24 0.664,2.53 2.309,1.33c3.142,-2.3 4.742,-9.28 6.245,-13.07c0.39,-0.98 2.888,-7.33 3.219,-7.56c2.212,-0.47 4.593,-0.55 6.882,-0.74l-6.413,16.54c-1.347,6.1 2.576,3.01 4.299,0.06c2.927,-5.03 4.183,-11.98 6.641,-17.32l7.201,-0.78zM81.6797,73.556c-0.482,-0.56 -1.587,1.91 -1.711,2.17c-0.878,1.85 -2.908,7.72 -1.652,9.38c1.255,1.67 2.894,-0.93 3.564,-1.92c0.579,-0.85 2.94,-5.16 2.433,-5.87c-0.143,-0.19 -0.982,-0.41 -1.333,-0.67c-0.944,-0.71 -1.392,-1.92 -1.308,-3.08zM166.0027,89.146c-2.498,1.03 -8.443,3.62 -8.254,6.91c0.111,1.94 2.459,1.09 3.519,0.26c1.275,-0.99 3.22,-3.72 3.981,-5.09c0.169,-0.32 0.969,-1.85 0.754,-2.08z" fill="#FDDB32"/>
<path d="M151.9397,88.476l-4.026,6.94l-85.689,8.05l4.364,-6.53z" fill="#FDDB32"/>
<path d="M81.7167,10.426c-0.616,-0.44 -1.333,-0.71 -2.085,-0.73c-4.563,-0.14 -10.455,0.95 -16.448,-2.45c-6.577,-3.71 -7.755,-4.22 -10.606,-4.55c-1.258,-0.17 -9.212,-0.23 -10.024,-0.09c-0.267,0.04 1.738,2.4 6.091,7.18c1.786,1.97 3.281,3.69 3.307,3.83c0.069,0.37 -0.449,0.53 -2.237,0.69c-2.795,0.27 -3.719,-0.04 -6.088,-2.03c-1.471,-1.22 -1.893,-1.31 -5.641,-1.2l-2.843,0.09l10.4,12.36c5.489,-2.48 10.241,-5.78 30.766,-6.84c6.051,-0.31 9.231,-0.53 9.231,-0.53c0,0 -0.143,-1.92 -0.566,-3.4c0.044,0 -2.006,-1.45 -3.257,-2.33z" stroke="black" stroke-width="1.34333" stroke-miterlimit="10"/>
<path d="M42.0287,52.586l12.461,-29.51l9.676,-1.88l-13.33,30.96c-2.732,0.11 -5.477,0.66 -8.196,0.79c-0.345,0.02 -0.754,0.16 -0.611,-0.36z" stroke="black" stroke-width="1.34333" stroke-miterlimit="10"/>
<path d="M38.5457,20.656l3.965,5.33c-4.399,3.3 -8.254,7.43 -11.319,11.67c-8.156,11.29 -14.238,28.22 -10.446,42.13c1.73,6.35 6.127,12.74 12.768,14.37l15.735,-31.53c0.728,-0.73 -0.274,-0.46 -1.614,-0.36c-3.18,0.22 -6.419,0.75 -9.607,1l2.544,-6.74l21.158,-2.06c-0.975,5.37 -2.38,10.67 -3.44,16.02c-0.078,0.38 -0.215,0.67 0.318,0.57l13.152,-17.79l9.178,-0.81l-0.241,1.14c-9.886,18.55 -12.28,47.86 -38.057,50.13c-1.704,0.15 -3.408,-0.06 -5.106,0.13c-2.517,3.28 -4.709,6.89 -7.857,9.68c-5.549,4.91 -13.79,7.68 -20.906,4.71c-9.678,-4.04 -10.179,-16.93 -4.169,-24.44c0.911,-1.14 4.462,-4.42 5.659,-4.87l4.085,6.12c0,0 -0.547,0.43 -1.002,0.77c-3.701,2.78 -5.587,7.44 -3.265,11.8c2.049,3.85 6.556,4 10.231,2.5c3.675,-1.5 6.166,-4.81 8.482,-7.79c0.091,-0.49 -0.072,-0.31 -0.312,-0.42c-1.217,-0.61 -2.53,-1.04 -3.753,-1.76c-7.819,-4.58 -12.755,-13.54 -13.861,-22.48c-2.53,-20.41 9.828,-44.16 27.68,-57.02zM53.3657,87.636h-4.117l2.244,-13.45l-9.725,20.62c-0.175,0.61 0.983,0.39 1.36,0.37c6.927,-0.44 13.666,-5.63 16.976,-11.55c1.88,-3.37 3.513,-7.45 4.859,-11.06c-4.143,4.75 -7.59,10.17 -11.597,15.07z" stroke="black" stroke-width="1.34333" stroke-miterlimit="10"/>
<path d="M89.0587,15.476c-0.292,0.03 -0.559,-0.16 -0.621,-0.45l-1.172,-5.49c-0.073,-0.34 0.165,-0.66 0.508,-0.7l72.505,-7.16h-0.013c0.273,0.27 -2.517,6.19 -2.92,7.04z" stroke="black" stroke-width="1.34333" stroke-miterlimit="10"/>
<path d="M172.0677,0.676c-3.285,9.06 -7.65,17.76 -10.915,26.82c-1.106,3.07 -3.623,8.8 2.426,6.47c3.63,-1.4 6.394,-4.21 9.146,-6.87c0.325,-0.06 7.144,1.63 7.209,1.93c-1.08,1.49 -5.196,6.11 -5.196,6.11c0,0 -5.142,6.44 -6.28,10.03c-0.475,1.51 -0.716,3.88 -1.197,5.08c-0.098,0.24 -0.189,0.44 -0.436,0.57l-84.824,8.16c1.814,-4.12 2.517,-5.64 2.907,-7l76.928,-7.45c0.312,-0.15 2.693,-4.71 2.491,-4.9c-3.434,1.28 -8.462,3.89 -11.708,0.87c-0.527,-0.49 -1.04,-1.86 -1.144,-1.88c-0.56,-0.1 -1.919,1.31 -2.531,1.72c-7.584,5.08 -18.733,5.45 -17.789,-6.61c0.045,-0.55 1.183,-5.15 0.865,-5.17c-2.726,0.07 -2.231,0.92 -3.233,2.78c-2.79,5.2 -6.329,10.43 -11.045,14.01l-7.05,0.81l0.37,-5.78c-2.81,3.54 -7.974,8.78 -12.904,6.46c-1.275,-0.6 -1.392,-1.39 -1.913,-2.6c-0.065,-0.15 0.02,-0.55 -0.396,-0.34c-0.274,0.14 -1.601,2.09 -2.069,2.51c-2.081,1.87 -5.88,3.37 -8.293,1.39c-0.735,-0.61 -1.158,-1.82 -1.255,-1.88c-0.43,-0.31 -2.557,1.59 -3.155,1.95c-2.771,1.66 -8.17,3.5 -10.55,0.42c-2.713,-3.51 0.657,-9.76 2.543,-13.02c0.475,-0.82 1.997,-2.64 2.192,-3.32c0.156,-0.52 -0.293,-0.37 -0.624,-0.38c-0.456,-0.01 -2.843,0.21 -3.188,0.31c-0.533,0.16 -0.975,1.27 -1.216,1.8c-2.602,5.7 -4.729,11.67 -7.753,17.19c-2.153,0.49 -4.462,0.39 -6.674,0.56c3.825,-6.59 7.617,-13.19 10.876,-20.1c0.156,-0.64 -0.586,-1.08 -0.833,-1.7c-1.607,-3.99 2.082,-10.1 6.55,-9.62c2.797,0.31 1.717,3.99 1.119,5.79c2.745,-0.32 5.32,-1.47 7.61,-2.96l3.59,3.88c-1.736,2.84 -7.278,11.61 -6.667,14.73c0.508,2.59 4.345,0.23 5.302,-1.1c0.956,-1.33 1.704,-5.48 2.523,-7.51c2.017,-4.97 7.545,-13.48 13.855,-11.96c1.203,0.29 1.561,1.18 2.172,2.08c0.111,0.16 0.163,0.72 0.553,0.32c0.143,-0.14 0.312,-2.38 0.995,-2.64l7.24,-0.87l-6.869,17.83c-0.28,1.12 -0.247,2.62 1.236,2.51c2.589,-0.18 5.581,-5.43 6.771,-7.52l1.847,-12.96l6.999,-0.87l-3.122,19.35c1.249,-0.99 2.244,-2.54 3.122,-3.88c0.65,-0.99 3.851,-6.25 3.695,-6.98c-0.098,-0.46 -0.814,-1.02 -0.937,-1.84c-0.475,-3.08 0.937,-6.92 3.499,-8.76c1.366,-0.98 3.441,-1.74 4.722,-0.27c1.523,1.73 0.417,4.86 0.371,6.92c3.37,-0.15 4.911,-3.2 7.24,-5.03c5.054,-3.96 12.774,-4.5 11.818,4.11c-0.618,5.57 -5.346,10.4 -9.782,13.27c-0.768,0.5 -2.199,0.67 -0.423,1.59c3.577,1.85 9.405,-2.79 11.181,-5.83c3.746,-10.17 8.222,-20.09 12.046,-30.21zM138.6347,32.586c0.637,0.57 3.746,-3.06 4.195,-3.69c0.846,-1.17 5.217,-9.64 0.917,-6.61c-2.771,1.95 -4.715,7 -5.112,10.3zM97.4027,27.366c-2.686,0.58 -5.756,8.08 -5.925,10.62c-0.313,4.72 2.621,2.75 4.351,0.37c0.937,-1.28 1.808,-3.18 2.329,-4.69c0.468,-1.37 2.315,-6.97 -0.755,-6.3z" stroke="black" stroke-width="1.34333" stroke-miterlimit="10"/>
<path d="M185.7177,54.466l-9.236,26.01c0.162,0.33 0.689,0.04 0.93,-0.07c1.906,-0.88 4.319,-3.26 5.314,-5.08l5.146,3.14c0,0 -4.352,3.32 -4.925,3.75c-1.086,0.81 -2.608,1.82 -3.798,2.46c-1.061,0.55 -4.417,1.63 -5.028,2.22c-0.488,0.47 -2.218,5.05 -2.836,6.19c-2.257,4.19 -5.718,8.78 -10.524,10.01c-5.64,1.44 -10.225,-0.48 -9.477,-7.04c0.54,-4.75 6.745,-8.66 10.732,-10.3c1.268,-0.53 5.561,-1.54 6.218,-2.03c0.319,-0.23 0.469,-0.76 0.631,-1.13c2.387,-5.2 -0.481,-1.44 -2.283,-0.28c-1.802,1.15 -5.008,2.33 -6.569,0.17c-0.345,-0.49 -0.397,-1.46 -0.872,-1.39c-0.306,0.04 -2.088,1.92 -2.686,2.32c-2.264,1.5 -7.084,2.86 -8.437,-0.42c-1.808,-4.39 2.888,-11.92 3.897,-16.46c0.201,-0.92 0.227,-1.42 -0.879,-0.89c-2.022,0.97 -6.582,12.14 -7.61,14.71c-0.663,1.65 -1.171,3.36 -1.808,5.02l-7.057,0.75c1.411,-5.29 4.006,-10.4 5.554,-15.64c0.228,-0.77 0.599,-1.82 0.683,-2.58c0.293,-2.59 -1.775,0.13 -2.348,0.89c-2.296,3.04 -4.345,8.08 -5.925,11.63c-0.423,0.94 -2.413,6.26 -2.862,6.41l-6.823,0.54l-0.124,-1c-1.119,0.88 -2.563,1.64 -3.987,1.77c-9.939,0.9 -2.029,-13.15 -0.898,-17.5c0.26,-1.01 0.683,-3.27 -0.988,-1.75c-0.944,0.85 -2.218,3.22 -2.869,4.41c-2.654,4.85 -4.377,10.4 -6.4,15.54l-6.947,0.54c1.717,-5.38 4.247,-10.73 5.802,-16.14c0.202,-0.7 0.566,-1.67 0.663,-2.34c0.15,-0.96 -0.539,-0.74 -1.118,-0.37c-1.197,0.76 -3.506,4.88 -4.235,6.29c-2.179,4.23 -3.714,8.84 -5.6,13.21l-6.992,0.87l5.984,-16.58l-4.176,2.07c-1.08,5.41 -6.186,15.21 -12.183,16c-10.511,1.39 -7.922,-11.35 -5.268,-17.37c1.378,-3.13 5.314,-9.24 8.846,-9.96c1.151,-0.24 1.079,0.65 1.502,1.4c0.52,0.9 0.995,-0.48 1.392,-0.86c5.444,-5.07 5.6,0.8 6.407,4.81c0.058,0.31 -0.182,0.46 0.371,0.38c1.079,-0.15 3.993,-2.6 4.741,-3.52c1.041,-1.28 1.464,-2.81 2.42,-4.1l6.427,-1.18c0.26,0.25 -2.479,5.82 -2.719,6.69c-0.13,0.47 0.11,0.37 0.468,0.35c1.476,-2.57 5.828,-8.2 9.087,-7.78c2.322,0.29 2.036,3.08 2.14,4.65c0.026,0.37 -0.196,0.73 0.37,0.62c1.483,-1.89 4.267,-5.61 6.752,-6.01c5.717,-0.92 4.208,5.86 3.22,9.27c-0.82,2.83 -3.142,6.96 -3.545,9.49c-0.813,5.08 4.956,-0.84 5.398,-2.61l6.076,-16.87l6.673,-1.06c-0.345,1.37 -2.576,5.29 -2.498,6.4c0.02,0.24 0.293,0.12 0.501,0.13c1.295,-2.49 7.097,-9.43 10.16,-6.71c1.151,1.02 0.729,2.74 0.826,4.07c0.026,0.38 -0.195,0.73 0.371,0.62c1.691,-3.35 9.887,-10.49 11.044,-3.08c0.82,5.25 -3.876,11.2 -4.618,15.84c-0.357,2.24 0.664,2.53 2.309,1.33c3.142,-2.3 4.742,-9.28 6.245,-13.07c0.39,-0.98 2.888,-7.33 3.219,-7.56c2.212,-0.47 4.593,-0.55 6.882,-0.74l-6.413,16.54c-1.347,6.1 2.576,3.01 4.299,0.06c2.927,-5.03 4.183,-11.98 6.641,-17.32l7.201,-0.78zM81.6797,73.556c-0.482,-0.56 -1.587,1.91 -1.711,2.17c-0.878,1.85 -2.908,7.72 -1.652,9.38c1.255,1.67 2.894,-0.93 3.564,-1.92c0.579,-0.85 2.94,-5.16 2.433,-5.87c-0.143,-0.19 -0.982,-0.41 -1.333,-0.67c-0.944,-0.71 -1.392,-1.92 -1.308,-3.08zM166.0027,89.146c-2.498,1.03 -8.443,3.62 -8.254,6.91c0.111,1.94 2.459,1.09 3.519,0.26c1.275,-0.99 3.22,-3.72 3.981,-5.09c0.169,-0.32 0.969,-1.85 0.754,-2.08z" stroke="black" stroke-width="1.34333" stroke-miterlimit="10"/>
<path d="M151.9397,88.476l-4.026,6.94l-85.689,8.05l4.364,-6.53z" stroke="black" stroke-width="1.34333" stroke-miterlimit="10"/>
</g></svg>