<svg viewBox="0 0 68 12" fill="none" xmlns="http://www.w3.org/2000/svg" xmlns:xlink="http://www.w3.org/1999/xlink" x="0" y="0"><defs><clipPath id="clip59_128_3553">
<rect width="12" height="12" fill="white" transform="translate(0, 0)"/>
</clipPath><clipPath id="clip60_128_3553">
<rect width="12" height="12" fill="white" transform="translate(0, 0)"/>
</clipPath><clipPath id="clip61_128_3553">
<rect width="12" height="12" fill="white" transform="translate(14, 0)"/>
</clipPath><clipPath id="clip62_128_3553">
<rect width="12" height="12" fill="white" transform="translate(14, 0)"/>
</clipPath><clipPath id="clip63_128_3553">
<rect width="12" height="12" fill="white" transform="translate(28, 0)"/>
</clipPath><clipPath id="clip64_128_3553">
<rect width="12" height="12" fill="white" transform="translate(28, 0)"/>
</clipPath><clipPath id="clip65_128_3553">
<rect width="12" height="12" fill="white" transform="translate(42, 0)"/>
</clipPath><clipPath id="clip66_128_3553">
<rect width="12" height="12" fill="white" transform="translate(42, 0)"/>
</clipPath><clipPath id="clip67_128_3553">
<rect width="12" height="12" fill="white" transform="translate(56, 0)"/>
</clipPath><clipPath id="clip68_128_3553">
<rect width="12" height="12" fill="white" transform="translate(56, 0)"/>
</clipPath></defs><g id="Stars">
<g id="star">
<g id="Component 1_17" clip-path="url(#clip59_128_3553)">
<g id="svg-1129640141_636" clip-path="url(#clip60_128_3553)">
<rect width="12" height="12" transform="translate(0, 0)" fill="white"/>
<path id="Vector_53" d="M5.266,0.74c0.272,-0.65 1.197,-0.65 1.469,0l1.26,3.04l3.273,0.26c0.705,0.05 0.991,0.93 0.454,1.39l-2.493,2.14l0.761,3.19c0.163,0.69 -0.585,1.23 -1.187,0.87l-2.802,-1.71l-2.803,1.71c-0.603,0.36 -1.351,-0.18 -1.187,-0.87l0.762,-3.19l-2.494,-2.14c-0.537,-0.46 -0.251,-1.34 0.454,-1.39l3.272,-0.26z" fill="currentColor"/>
</g>
</g>
</g>
<g id="star_2">
<g id="Component 1_18" clip-path="url(#clip61_128_3553)">
<g id="svg-1129640141_636_2" clip-path="url(#clip62_128_3553)">
<rect width="12" height="12" transform="translate(14, 0)" fill="white"/>
<path id="Vector_54" d="M19.266,0.74c0.272,-0.65 1.197,-0.65 1.469,0l1.26,3.04l3.273,0.26c0.705,0.05 0.991,0.93 0.454,1.39l-2.493,2.14l0.761,3.19c0.163,0.69 -0.585,1.23 -1.187,0.87l-2.802,-1.71l-2.803,1.71c-0.603,0.36 -1.351,-0.18 -1.187,-0.87l0.762,-3.19l-2.494,-2.14c-0.537,-0.46 -0.251,-1.34 0.454,-1.39l3.272,-0.26z" fill="currentColor"/>
</g>
</g>
</g>
<g id="star_3">
<g id="Component 1_19" clip-path="url(#clip63_128_3553)">
<g id="svg-1129640141_636_3" clip-path="url(#clip64_128_3553)">
<rect width="12" height="12" transform="translate(28, 0)" fill="white"/>
<path id="Vector_55" d="M33.266,0.74c0.272,-0.65 1.197,-0.65 1.469,0l1.26,3.04l3.273,0.26c0.705,0.05 0.991,0.93 0.454,1.39l-2.493,2.14l0.761,3.19c0.163,0.69 -0.585,1.23 -1.187,0.87l-2.802,-1.71l-2.803,1.71c-0.603,0.36 -1.351,-0.18 -1.187,-0.87l0.762,-3.19l-2.494,-2.14c-0.537,-0.46 -0.251,-1.34 0.454,-1.39l3.272,-0.26z" fill="currentColor"/>
</g>
</g>
</g>
<g id="star_4">
<g id="Component 1_20" clip-path="url(#clip65_128_3553)">
<g id="svg-1129640141_636_4" clip-path="url(#clip66_128_3553)">
<rect width="12" height="12" transform="translate(42, 0)" fill="white"/>
<path id="Vector_56" d="M47.266,0.74c0.272,-0.65 1.197,-0.65 1.469,0l1.26,3.04l3.273,0.26c0.705,0.05 0.991,0.93 0.454,1.39l-2.493,2.14l0.761,3.19c0.163,0.69 -0.585,1.23 -1.187,0.87l-2.802,-1.71l-2.803,1.71c-0.603,0.36 -1.351,-0.18 -1.187,-0.87l0.762,-3.19l-2.494,-2.14c-0.537,-0.46 -0.251,-1.34 0.454,-1.39l3.272,-0.26z" fill="currentColor"/>
</g>
</g>
</g>
<g id="star_5">
<g id="Component 1_21" clip-path="url(#clip67_128_3553)">
<g id="svg-1129640141_636_5" clip-path="url(#clip68_128_3553)">
<rect width="12" height="12" transform="translate(56, 0)" fill="white"/>
<path id="Vector_57" d="M61.266,0.74c0.272,-0.65 1.197,-0.65 1.469,0l1.26,3.04l3.273,0.26c0.705,0.05 0.991,0.93 0.454,1.39l-2.493,2.14l0.761,3.19c0.163,0.69 -0.585,1.23 -1.187,0.87l-2.802,-1.71l-2.803,1.71c-0.603,0.36 -1.351,-0.18 -1.187,-0.87l0.762,-3.19l-2.494,-2.14c-0.537,-0.46 -0.251,-1.34 0.454,-1.39l3.272,-0.26z" fill="currentColor"/>
</g>
</g>
</g>
</g></svg>