<svg viewBox="0 0 17.2753 19.3689" fill="none" xmlns="http://www.w3.org/2000/svg" xmlns:xlink="http://www.w3.org/1999/xlink" x="0" y="0"><path id="Vector_91" d="M6.426,19.3656c-0.025,0 -0.05,0 -0.076,0c-1.715,-0.02 -3.321,-0.69 -4.52,-1.9c-1.398,-1.4 -2.042,-3.32 -1.768,-5.27c0.365,-2.59 2.275,-4.66 4.868,-5.27c0.439,-0.1 0.894,0 1.249,0.27c0.358,0.28 0.562,0.69 0.562,1.14v1.58c0,0.62 -0.388,1.17 -0.966,1.37c-0.18,0.07 -0.347,0.16 -0.498,0.27c-0.823,0.62 -0.983,1.78 -0.358,2.6c0.349,0.45 0.901,0.73 1.477,0.73c0.002,0 0.004,0 0.006,0c0.495,0 0.961,-0.19 1.313,-0.54c0.355,-0.35 0.551,-0.81 0.553,-1.31v-11.42c0,-0.89 0.738,-1.62 1.646,-1.62h1.49c0.796,0 1.444,0.64 1.444,1.42v0.14c0.185,1.75 1.672,2.42 2.891,2.67c0.051,0.01 0.104,0.02 0.158,0.03c0.799,0.13 1.378,0.79 1.378,1.58v1.37c0,0.47 -0.204,0.91 -0.559,1.22c-0.356,0.31 -0.831,0.45 -1.301,0.39c-0.891,-0.12 -1.76,-0.37 -2.567,-0.75v4.99c0,1.69 -0.705,3.34 -1.934,4.52c-1.209,1.16 -2.8,1.79 -4.488,1.79zM5.215,8.4056c-1.941,0.48 -3.366,2.04 -3.641,4c-0.209,1.48 0.282,2.94 1.348,4.02c0.914,0.91 2.138,1.43 3.446,1.44c1.307,0.02 2.544,-0.47 3.479,-1.37c0.937,-0.9 1.474,-2.15 1.474,-3.44v-6.3c0,-0.28 0.159,-0.53 0.413,-0.66c0.253,-0.13 0.558,-0.11 0.791,0.05c0.909,0.63 1.976,1.04 3.086,1.18c0.046,0.01 0.078,-0.01 0.097,-0.03c0.027,-0.02 0.041,-0.05 0.041,-0.09v-1.37c0,-0.06 -0.051,-0.09 -0.098,-0.1c-0.075,-0.01 -0.15,-0.02 -0.224,-0.04c-2.411,-0.5 -3.905,-1.97 -4.102,-4.03c-0.002,-0.02 -0.004,-0.05 -0.004,-0.07v-0.1h-1.407c-0.066,0 -0.119,0.06 -0.119,0.12v11.42c-0.003,0.9 -0.359,1.74 -1,2.37c-0.64,0.63 -1.489,0.98 -2.392,0.98c-0.004,0 -0.008,0 -0.013,0c-1.049,-0.01 -2.055,-0.5 -2.69,-1.33c-1.128,-1.47 -0.837,-3.57 0.648,-4.69c0.264,-0.2 0.556,-0.36 0.867,-0.47z" fill="currentColor"/></svg>